<?xml version="1.0" encoding="UTF-8"?>
<!-- Generator: Adobe Illustrator 25.2.1, SVG Export Plug-In . SVG Version: 6.00 Build 0)  -->
<svg xmlns="http://www.w3.org/2000/svg" xmlns:xlink="http://www.w3.org/1999/xlink" version="1.1" id="Capa_1" x="0px" y="0px" viewBox="0 0 512 512" style="enable-background:new 0 0 512 512;" xml:space="preserve" width="512" height="512">
<g>
	<path style="fill:#FFFFFF;" d="M366.49,512c-9.905,0-19.762-3.024-27.754-8.512c-15.784-10.78-22.61-28.619-26.423-44.532   c-6.478,10.015-16.827,15.543-30.044,15.652c-0.036,0-0.225,0-0.263,0c-11.252,0-23.141-6.043-36.221-18.444   c-10.739-0.564-21.421-1.88-31.938-3.936c-3.537,17.256-9.928,38.483-27.812,50.698c-7.968,5.468-17.824,8.492-27.723,8.492   c-0.314,0-0.627-0.005-0.941-0.009c-0.89-0.004-1.813-0.042-2.701-0.116c-3.601-0.245-7.312-0.934-10.84-2.036   c-6.208-1.927-12.202-5.269-17.3-9.66c-0.781-0.682-1.485-1.329-2.188-2.003c-5.14-4.975-9.15-11.018-11.643-17.516   c-4.645-11.991-3.923-24.699-2.973-33.213c0.645-5.751,1.617-11.181,2.91-16.279c-9.993,4.156-18.714,6.201-26.325,6.201   c-4.482,0-8.666-0.714-12.432-2.121c-13.705-5.109-19.445-14.491-21.847-21.462c-5.983-17.376,2.647-37.516,7.272-46.402   c-0.379-5.104-0.406-13.321,1.759-22.813c-5.86-9.944-10.969-20.342-15.246-31.035c-1.412-0.4-2.669-0.789-3.389-1.087   c-5.125-2.114-9.924-4.961-14.261-8.458c-6.148-4.956-16.644-15.207-17.857-28.161c-0.642-6.854,1.412-13.286,5.938-18.6   c3.537-4.153,8.527-7.098,14.196-8.406c-0.578-6.643-0.868-13.323-0.868-19.985c0-0.127,0-0.253,0-0.38   c-1.826-2.408-2.872-5.275-3.035-8.271c-3.503-2.961-5.633-7.467-5.372-12.382c0.301-5.445,3.43-10.082,7.905-12.519   c0-0.018,0.002-0.036,0.004-0.053c0.386-3.561,1.978-6.799,4.525-9.254c9.546-50.144,35.867-95.908,74.731-129.623   C149.796,19.808,202.889,0,257.835,0c125.861,0,228.257,102.396,228.257,228.257c0,6.579-0.288,13.227-0.856,19.819   c2.776,0.896,5.256,2.589,7.136,4.93c2.003,2.492,3.142,5.476,3.318,8.599c3.929,2.934,6.369,7.71,6.092,12.952   c-0.321,5.785-3.829,10.655-8.753,12.948c-0.617,3.664-2.533,6.932-5.457,9.278c-1.588,1.277-3.423,2.214-5.374,2.765   c-0.011,0.35-0.036,0.703-0.074,1.056c-0.705,6.499-5.869,11.497-12.2,12.151c-1.893,4.748-3.949,9.436-6.15,14.03   c-0.007,0.056-0.013,0.112-0.02,0.167c0.074,0.05,0.145,0.1,0.218,0.15c6.054,4.218,7.223,9.696,7.384,12.587   c0.33,5.884-2.714,11.45-7.948,14.509c-2.961,1.731-5.833,2.203-7.736,2.407c-1.3,0.139-2.651,0.212-4.009,0.212   c-0.868,0-1.739-0.029-2.616-0.085c-3.158,4.172-3.909,4.926-4.333,5.352c-1.755,1.762-3.688,3.463-5.762,5.07   c-6.763,8.809-14.182,17.149-22.07,24.813c-0.843,0.823-1.701,1.648-2.582,2.478c-2.972,4.168-8.92,9.64-10.789,11.092   c-0.397,0.31-1.218,1.028-1.626,1.34c6.389,10.613,11.45,25.083,13.187,40.563c0.952,8.518,1.677,21.229-2.986,33.262   c-2.473,6.449-6.483,12.49-11.578,17.427c-0.745,0.716-1.445,1.353-2.141,1.965c-5.187,4.473-11.181,7.816-17.423,9.752   c-3.496,1.095-7.209,1.786-11,2.047c-0.747,0.058-1.641,0.094-2.515,0.098C367.117,511.998,366.805,512,366.49,512z"/>
	<g>
		<path style="fill:#FFD179;" d="M472.198,228.645c0,60.353-24.935,114.905-65.056,153.884c-2.762,2.7-5.614,5.327-8.526,7.864    c0,0-267.113,11.797-266.839,12.003c0.091,0.069-0.183-0.137-0.274-0.206c-3.311-2.398-6.553-4.909-9.728-7.513    c-2.535-2.032-5.001-4.156-7.421-6.348c-43.751-39.276-71.267-96.272-71.267-159.684c0-118.49,96.066-214.556,214.556-214.556    C376.132,14.089,472.198,110.155,472.198,228.645z"/>
		<g>
			<path style="fill:#FFE7E0;" d="M398.615,390.392c-1.667,1.393-5.364,4.578-7.099,5.925     c-37.175,29.023-80.298,46.884-131.425,46.884c-16.076,0-31.741-1.713-46.811-4.978c-15.094-3.243-29.594-8.038-43.34-14.181     c-13.359-5.983-25.986-13.244-37.723-21.647c3.585-2.626,7.284-4.978,10.801-6.942c16.966-9.476,31.581-18.382,36.262-39.961     c45.761-2.991,90.655-7.125,135.867-12.742c11.417-1.393,22.812-2.9,34.275-4.476c2.283-0.343,5.709,6.599,6.439,8.951     c0.822,2.535,1.85,5.001,3.06,7.353c2.923,5.572,6.896,10.481,11.646,14.317c4.544,3.654,9.75,6.302,14.523,9.545     C390.889,382.347,394.139,384.843,398.615,390.392z"/>
			<g>
				<g>
					<path style="fill:#FF5647;" d="M359.583,353.223c-10.057,9.225-21.921,16.5-34.713,21.279       c-5.54,2.092-11.27,3.709-17.095,4.827c-2.14-1.593-7.442-3.424-8.512-5.873c-0.88-2.021-0.856-4.327-0.808-6.562       c0.071-2.52,0.119-5.04,0.761-7.466c1.427-5.373,5.516-9.582,10.081-12.815c0.428-0.309,0.88-0.618,1.308-0.903       c1.902-1.236,3.876-2.354,5.897-3.329c11.222-1.284,22.444-2.663,33.714-4.113c2.259-0.309,5.611,6.063,6.348,8.203       C357.372,348.801,358.394,351.059,359.583,353.223z"/>
					<path style="fill:#5E2D42;" d="M324.871,374.502c-5.54,2.092-11.27,3.709-17.095,4.827c-2.14-1.593-7.442-3.424-8.512-5.873       c-0.88-2.021-0.856-4.327-0.808-6.562c0.071-2.52,0.119-5.04,0.761-7.466c1.427-5.373,5.516-9.582,10.081-12.815       C316.026,354.935,321.328,364.421,324.871,374.502z"/>
				</g>
				<g>
					<g>
						<g>
							<path style="fill:#FFE7E0;" d="M90.277,230.99c-0.575,1.23-23.473-108.085,2.831-123.954         c26.304-15.869,111.222,26.847,111.222,26.847L90.277,230.99z"/>
							<path style="fill:#F7BDD6;" d="M96.218,225.977c0,0-19.829-92.594-2.282-102.769c17.547-10.175,81.034,33.507,81.034,33.507         L96.218,225.977z"/>
						</g>
						<g>
							<path style="fill:#FFE7E0;" d="M429.756,236.317c0.535,1.248,26.986-107.262,1.213-123.98         c-25.772-16.719-112.039,23.205-112.039,23.205L429.756,236.317z"/>
							<path style="fill:#F7BDD6;" d="M423.981,231.113c0,0,22.839-91.898,5.633-102.64c-17.206-10.742-82.083,30.846-82.083,30.846         L423.981,231.113z"/>
						</g>
					</g>
					<g>
						<path style="fill:#FFE7E0;" d="M447.959,261.162c0,0-6.229,13.671-19.901,31.67c0,0-42.323,1.063-57.283,13.588        c-13.555,11.348-27.027,54.198-27.027,54.198c-23.942,10.652-52.474,17.689-85.998,17.689        c-30.719,0-56.706-4.874-78.604-12.554c0,0-18.421-40.21-33.282-52.388c-11.374-9.321-51.527-7.527-51.527-7.527        c-15.264-19.33-21.113-34.975-21.113-34.975s39.659-147.292,182.1-147.292C397.791,123.571,447.959,261.162,447.959,261.162z"/>
						<g>
							<g>
								<g>
									<g>
										<g>
											<path style="fill:#5E2D42;" d="M264.846,306.42c-4.013,0.001-12.814-6.567-18.217-10.93             c-0.417-0.337-0.483-0.95-0.147-1.368c0.34-0.419,0.954-0.483,1.369-0.146c7.833,6.324,15.841,11.254,17.135,10.542             c1.679-1.982,1.805-17.702,1.485-27.141c-0.019-0.536,0.403-0.986,0.94-1.005c0.515,0.029,0.986,0.402,1.005,0.94             c0.142,4.202,0.716,25.324-1.971,28.485C266.08,306.227,265.534,306.42,264.846,306.42z"/>
											<path style="fill:#5E2D42;" d="M270.616,306.058c-0.602,0-1.098-0.145-1.46-0.466c-2.847-2.53-2.621-22.277-2.484-28.269             c0.012-0.529,0.445-0.95,0.972-0.95c0.007,0,0.014,0,0.023,0c0.536,0.012,0.961,0.457,0.949,0.995             c-0.271,11.851,0.352,25.456,1.831,26.77c1.213,0.822,9.06-3.932,16.79-10.162c0.417-0.337,1.031-0.271,1.369,0.147             c0.336,0.419,0.271,1.032-0.147,1.369C284.225,298.901,274.839,306.058,270.616,306.058z"/>
										</g>
										<path style="fill:#F5755D;" d="M258.92,269.684c-0.264-0.046-0.527-0.094-0.791-0.142            c-2.047-0.375-4.153-0.794-6.192-0.376c-5.405,1.108-4.861,6.126-1.917,9.473c4.142,4.709,10.097,9.33,16.583,9.794            c6.573,0.469,20.036-8.189,19.333-15.537c-0.173-1.812-1.286-3.551-2.943-4.304c-2.644-1.202-5.649,0.223-8.433,1.047            C269.514,271.134,264.118,270.598,258.92,269.684z"/>
									</g>
									<g>
										<circle style="fill:#491D30;" cx="179.453" cy="251.646" r="17.604"/>
										<circle style="fill:#491D30;" cx="345.784" cy="251.646" r="17.604"/>
										<path style="fill:#491D30;" d="M153.565,207.603c-0.903,1.716-1.604,3.798-0.774,5.55c0.726,1.533,2.484,2.37,4.179,2.446            c1.695,0.076,3.35-0.48,4.934-1.088c3.833-1.472,7.532-3.295,11.034-5.439c6.155-3.767,5.477-13.184-2.509-13.977            C163.632,194.421,156.372,202.265,153.565,207.603z"/>
										<path style="fill:#491D30;" d="M364.093,207.603c0.903,1.716,1.604,3.798,0.775,5.55c-0.726,1.533-2.485,2.37-4.179,2.446            c-1.695,0.076-3.35-0.48-4.934-1.088c-3.833-1.472-7.532-3.295-11.034-5.439c-6.154-3.767-5.477-13.184,2.509-13.977            C354.025,194.421,361.285,202.265,364.093,207.603z"/>
									</g>
								</g>
								<path style="fill:#F7BDD6;" d="M200.284,322.766c0,17.499-8.274,33.072-21.137,42.987          c-41.751-14.599-68.594-39.349-84.809-59.916c7.109-21.731,27.533-37.4,51.618-37.4          C175.961,268.438,200.284,292.761,200.284,322.766z"/>
								<path style="fill:#F7BDD6;" d="M428.058,292.832c-16.524,21.779-43.914,49.906-84.31,67.785          c-9.51-9.796-15.359-23.134-15.359-37.851c0-30.005,24.323-54.328,54.328-54.328          C401.667,268.438,418.334,278.138,428.058,292.832z"/>
							</g>
							<g>
								<path style="fill:#5E2D42;" d="M88.599,232.587c-0.154,0-0.31-0.037-0.455-0.114c-0.476-0.251-0.658-0.84-0.406-1.314          c0.184-0.346,18.555-34.799,42.071-57.51c0.387-0.375,1.003-0.363,1.376,0.023c0.373,0.387,0.364,1.003-0.023,1.376          c-23.289,22.492-41.521,56.678-41.703,57.02C89.284,232.398,88.946,232.587,88.599,232.587z"/>
								<path style="fill:#5E2D42;" d="M437.449,239.468c-0.368,0-0.723-0.212-0.886-0.57c-10.335-22.656-43.2-57.663-43.531-58.013          c-0.368-0.391-0.35-1.006,0.042-1.375c0.387-0.368,1.007-0.351,1.376,0.041c0.331,0.353,33.415,35.592,43.885,58.54          c0.222,0.489,0.007,1.066-0.483,1.288C437.722,239.438,437.585,239.468,437.449,239.468z"/>
							</g>
						</g>
						<g>
							<g>
								<path style="fill:#5E2D42;" d="M394.812,263.623c-0.518,0-0.986-0.353-1.11-0.878c-0.147-0.613,0.233-1.229,0.846-1.375          l81.045-19.212c0.623-0.145,1.229,0.236,1.374,0.848c0.147,0.613-0.233,1.229-0.846,1.375l-81.045,19.212          C394.986,263.614,394.898,263.623,394.812,263.623z"/>
								<path style="fill:#5E2D42;" d="M429.045,274.361c-11.051,0-22.091-0.23-33.07-0.69c-0.632-0.026-1.119-0.559-1.094-1.188          c0.028-0.63,0.588-1.121,1.187-1.093c25.113,1.052,50.58,0.895,75.686-0.464c0.681-0.041,1.166,0.451,1.201,1.079          c0.035,0.63-0.45,1.168-1.08,1.202C457.674,273.975,443.351,274.361,429.045,274.361z"/>
								<path style="fill:#5E2D42;" d="M468.31,300.657c-0.014,0-0.028,0-0.044-0.001c-25.251-0.977-50.231-5.459-74.245-13.319          c-0.599-0.197-0.926-0.842-0.73-1.441c0.194-0.598,0.84-0.928,1.439-0.73c23.816,7.795,48.587,12.239,73.625,13.209          c0.63,0.023,1.122,0.555,1.096,1.185C469.427,300.175,468.921,300.657,468.31,300.657z"/>
							</g>
							<g>
								<path style="fill:#5E2D42;" d="M126.778,263.623c-0.086,0-0.175-0.009-0.264-0.03l-81.047-19.212          c-0.613-0.146-0.993-0.761-0.847-1.375c0.145-0.612,0.756-0.992,1.374-0.848l81.047,19.212          c0.613,0.146,0.993,0.761,0.847,1.375C127.764,263.27,127.295,263.623,126.778,263.623z"/>
								<path style="fill:#5E2D42;" d="M92.542,274.361c-14.309,0-28.627-0.386-42.831-1.154c-0.63-0.034-1.115-0.572-1.08-1.202          c0.035-0.627,0.501-1.111,1.201-1.079c25.108,1.36,50.569,1.515,75.686,0.464c0.501-0.027,1.159,0.463,1.187,1.093          c0.026,0.63-0.462,1.162-1.094,1.188C114.635,274.131,103.591,274.361,92.542,274.361z"/>
								<path style="fill:#5E2D42;" d="M53.279,300.657c-0.611,0-1.117-0.483-1.14-1.097c-0.026-0.63,0.466-1.161,1.096-1.185          c25.036-0.97,49.806-5.415,73.622-13.209c0.595-0.198,1.245,0.132,1.439,0.73c0.196,0.599-0.131,1.244-0.73,1.441          c-24.015,7.86-48.995,12.342-74.243,13.319C53.309,300.657,53.293,300.657,53.279,300.657z"/>
							</g>
						</g>
					</g>
				</g>
				<g>
					<g>
						<g>
							<path style="fill:#FF5647;" d="M185.733,364.35c0,0-76.891,69.212-107.254,57.871c-30.362-11.317-5.255-52.212-5.255-52.212         s-5.682-29.934,17.808-52.188c1.403-1.332,2.948-2.33,4.66-3.02c25.678-10.913,83.287,43.772,89.517,49.145         c0,0,0,0.024,0.024,0.024C185.495,364.184,185.662,364.326,185.733,364.35z"/>
							<g>
								<path style="fill:#5E2D42;" d="M185.21,363.946c-21.708-7.085-43.391-14.313-64.029-24.085          c-6.348-3.02-12.649-6.301-17.974-10.866c-3.352-2.877-6.419-6.443-7.347-10.747c-0.238-1.118-0.285-2.306-0.166-3.447          C121.372,303.888,178.981,358.572,185.21,363.946z"/>
							</g>
						</g>
						<path style="fill:#5E2D42;" d="M143.353,366.194c-19.719,0-39.734-0.922-43.316-4.493c-0.492-0.491-0.728-1.037-0.702-1.624        c0.028-0.588,0.315-1.108,0.849-1.545c7.887-6.441,81.775,4.946,84.914,5.433c0.301,0.047,0.518,0.314,0.504,0.619        c-0.016,0.304-0.261,0.547-0.564,0.562C183.433,365.227,163.548,366.194,143.353,366.194z M113.171,357.702        c-6.25,0-10.713,0.508-12.233,1.75c-0.268,0.218-0.403,0.441-0.413,0.681c-0.012,0.241,0.103,0.479,0.352,0.726        c5.114,5.098,50.275,4.547,78.06,3.377C158.933,361.286,129.765,357.702,113.171,357.702z"/>
						<path style="fill:#5E2D42;" d="M108.952,398.315c-0.697,0-1.278-0.078-1.735-0.243c-0.653-0.236-1.096-0.631-1.322-1.174        c-0.224-0.543-0.187-1.136,0.114-1.759c4.405-9.173,76.157-30.19,79.21-31.079c0.282-0.083,0.602,0.064,0.716,0.346        c0.114,0.282-0.002,0.606-0.273,0.749C182.99,366.573,122.958,398.315,108.952,398.315z M179.751,366.917        c-26.664,7.999-69.563,22.27-72.671,28.738c-0.149,0.31-0.177,0.569-0.084,0.792c0.091,0.223,0.296,0.389,0.625,0.508        C114.428,399.408,155.086,379.754,179.751,366.917z"/>
					</g>
					<g>
						<g>
							<path style="fill:#FF5647;" d="M200.93,370.268c0,0,48.622,91.315,81.032,91.028c32.402-0.265,22.775-47.276,22.775-47.276         s15.566-26.192,1.091-55.132c-0.864-1.731-1.975-3.197-3.348-4.43c-20.405-19.029-93.23,12.687-100.92,15.609         c0,0-0.008,0.022-0.03,0.014C201.21,370.193,201.005,370.27,200.93,370.268z"/>
							<g>
								<path style="fill:#5E2D42;" d="M201.56,370.067c22.822,0.757,45.67,1.371,68.405-0.763          c6.998-0.669,14.04-1.601,20.605-4.072c4.133-1.559,8.234-3.863,10.576-7.591c0.605-0.969,1.056-2.07,1.334-3.183          C282.074,335.429,209.25,367.144,201.56,370.067z"/>
							</g>
						</g>
						<path style="fill:#5E2D42;" d="M279.624,397.492c-15.771,0-75.588-25.092-78.312-26.238c-0.28-0.119-0.427-0.43-0.338-0.722        c0.086-0.291,0.392-0.476,0.683-0.409c3.12,0.614,76.456,15.155,81.663,23.9c0.354,0.595,0.443,1.181,0.268,1.743        c-0.175,0.561-0.583,0.993-1.213,1.286C281.732,397.352,280.799,397.492,279.624,397.492z M207.357,372.482        c25.71,10.588,67.956,26.53,74.518,23.493c0.319-0.148,0.508-0.332,0.581-0.563c0.07-0.229,0.019-0.484-0.156-0.78        C278.626,388.466,234.627,378.073,207.357,372.482z"/>
						<path style="fill:#5E2D42;" d="M263.209,428.782c-0.002,0-0.005,0-0.007,0c-10.237-0.027-60.351-55.377-62.48-57.734        c-0.205-0.226-0.205-0.571,0-0.798c0.205-0.225,0.546-0.258,0.793-0.08c2.563,1.88,62.818,46.141,63.824,56.268        c0.07,0.689-0.098,1.258-0.494,1.693C264.45,428.563,263.9,428.782,263.209,428.782z M205.675,374.724        c18.798,20.49,50.307,52.852,57.53,52.87c0.002,0,0.005,0,0.005,0c0.347,0,0.595-0.086,0.758-0.265        c0.161-0.177,0.224-0.43,0.189-0.773C263.447,419.417,228.004,391.349,205.675,374.724z"/>
					</g>
					<path style="fill:#FF5647;" d="M190.275,358.009c-3.065,0.155-5.971,1.677-8.123,3.865c-2.152,2.188-3.593,5.001-4.487,7.936       c-1.258,4.133-1.408,8.851,0.814,12.556c1.091,1.819,2.767,3.337,4.789,3.976c2.023,0.639,4.39,0.306,5.996-1.079       c1.108,2.224,4.209,3.631,6.568,2.852c2.359-0.779,4.169-2.668,5.735-4.597c1.934-2.381,3.689-4.993,4.495-7.954       c1.106-4.064,0.247-8.617-2.264-11.998C201.287,360.185,194.482,357.796,190.275,358.009z"/>
				</g>
			</g>
			<g>
				<path style="fill:#5E2D42;" d="M212.405,438.224c-15.094-3.243-29.594-8.038-43.34-14.181      c0.411-9.248,1.393-18.473,2.946-27.584l0.342-4.635c12.925-1.165,25.798,5.477,32.511,16.597      C209.978,416.869,211.834,428.29,212.405,438.224z"/>
				<g>
					<path style="fill:#FFE7E0;" d="M200.309,449.481c-3.265,16.076-8.655,33.271-22.196,42.519       c-6.051,4.156-13.45,6.257-20.78,6.097c-0.571,0-1.165-0.023-1.736-0.069c-2.672-0.183-5.321-0.662-7.878-1.461       c-4.567-1.416-8.814-3.836-12.445-6.965c-0.548-0.479-1.096-0.982-1.644-1.507c-3.631-3.516-6.531-7.832-8.335-12.536       c-3.265-8.426-3.151-17.788-2.147-26.785c1.621-14.454,5.709-29.16,15.048-40.326c9.339-11.143,31.786-22.241,46.423-15.436       C205.356,402.67,204.031,431.122,200.309,449.481z"/>
					<path style="opacity:0.02;fill:#5E2D42;" d="M200.309,449.481c-3.265,16.076-8.655,33.271-22.196,42.519       c-6.051,4.156-13.45,6.257-20.78,6.097c-0.571,0-1.165-0.023-1.736-0.069c-2.672-0.183-5.321-0.662-7.878-1.461       c-4.567-1.416-8.814-3.836-12.445-6.965c-0.548-0.479-1.096-0.982-1.644-1.507c-3.631-3.516-6.531-7.832-8.335-12.536       c-3.265-8.426-3.151-17.788-2.147-26.785c1.621-14.454,5.709-29.16,15.048-40.326c9.339-11.143,31.786-22.241,46.423-15.436       C205.356,402.67,204.031,431.122,200.309,449.481z"/>
				</g>
				<path style="fill:#5E2D42;" d="M137.932,406.842c3.47-3.134,7.272-5.773,11.277-8.102c4.013-2.304,8.271-4.194,12.71-5.533      c4.448-1.324,9.112-1.882,13.743-1.734c4.669,0.111,9.17,1.501,13.448,3.247c0.163,0.067,0.241,0.253,0.175,0.415      c-0.066,0.162-0.25,0.24-0.412,0.176l-0.028-0.011c-4.222-1.674-8.64-2.998-13.215-3.064c-4.538-0.102-9.1,0.483-13.457,1.823      c-4.348,1.356-8.52,3.253-12.452,5.558c-3.912,2.318-7.674,4.991-10.998,8.048l-0.022,0.02      c-0.232,0.213-0.593,0.198-0.806-0.034c-0.213-0.232-0.199-0.593,0.034-0.806L137.932,406.842z"/>
				<path style="fill:#5E2D42;" d="M140.368,459.095c-2.877,9.979-4.59,20.186-5.092,30.507c-0.548-0.479-1.096-0.982-1.644-1.507      c0.617-9.956,2.306-19.821,5.092-29.457c0.137-0.457,0.617-0.731,1.073-0.594C140.231,458.181,140.505,458.638,140.368,459.095z      "/>
				<path style="fill:#5E2D42;" d="M159.8,464.278c-2.443,11.166-3.266,22.492-2.466,33.818c-0.571,0-1.165-0.023-1.736-0.069      c-0.799-11.417,0.046-22.858,2.535-34.115c0.091-0.48,0.548-0.754,1.005-0.662C159.617,463.342,159.892,463.799,159.8,464.278z"/>
			</g>
			<g>
				<path style="fill:#5E2D42;" d="M312.007,438.807c15.094-3.243,29.594-8.038,43.341-14.181      c-0.411-9.248-1.393-18.473-2.946-27.584l-0.342-4.635c-12.924-1.165-25.798,5.476-32.511,16.597      C314.434,417.452,312.578,428.873,312.007,438.807z"/>
				<g>
					<path style="fill:#FFE7E0;" d="M324.103,450.064c3.266,16.076,8.655,33.27,22.196,42.519c6.051,4.156,13.45,6.257,20.78,6.097       c0.571,0,1.165-0.023,1.736-0.069c2.672-0.183,5.321-0.662,7.878-1.461c4.567-1.416,8.814-3.836,12.445-6.965       c0.548-0.479,1.096-0.982,1.644-1.507c3.631-3.516,6.531-7.832,8.335-12.536c3.265-8.426,3.151-17.788,2.147-26.785       c-1.621-14.455-5.709-29.16-15.048-40.326c-9.339-11.144-31.786-22.241-46.423-15.436       C319.057,403.253,320.381,431.705,324.103,450.064z"/>
					<path style="opacity:0.02;fill:#5E2D42;" d="M324.103,450.064c3.266,16.076,8.655,33.27,22.196,42.519       c6.051,4.156,13.45,6.257,20.78,6.097c0.571,0,1.165-0.023,1.736-0.069c2.672-0.183,5.321-0.662,7.878-1.461       c4.567-1.416,8.814-3.836,12.445-6.965c0.548-0.479,1.096-0.982,1.644-1.507c3.631-3.516,6.531-7.832,8.335-12.536       c3.265-8.426,3.151-17.788,2.147-26.785c-1.621-14.455-5.709-29.16-15.048-40.326c-9.339-11.144-31.786-22.241-46.423-15.436       C319.057,403.253,320.381,431.705,324.103,450.064z"/>
				</g>
				<path style="fill:#5E2D42;" d="M385.664,408.222c-3.137-3.274-6.792-6.148-10.642-8.61c-3.872-2.45-8.044-4.43-12.418-5.772      c-4.362-1.423-8.996-1.851-13.546-1.611c-4.611,0.105-9.005,1.667-13.251,3.347l-0.031,0.012      c-0.155,0.061-0.33-0.015-0.392-0.17c-0.061-0.154,0.014-0.328,0.167-0.39c4.29-1.75,8.753-3.379,13.456-3.536      c4.641-0.292,9.384,0.105,13.845,1.511c4.476,1.325,8.744,3.302,12.706,5.756c3.953,2.48,7.655,5.321,10.95,8.693      c0.22,0.225,0.216,0.587-0.009,0.807c-0.226,0.22-0.587,0.216-0.807-0.009l-0.004-0.004L385.664,408.222z"/>
				<path style="fill:#5E2D42;" d="M384.044,459.678c2.877,9.979,4.59,20.186,5.092,30.508c0.548-0.479,1.096-0.982,1.644-1.507      c-0.617-9.956-2.306-19.821-5.092-29.457c-0.137-0.457-0.617-0.731-1.073-0.594      C384.181,458.764,383.908,459.221,384.044,459.678z"/>
				<path style="fill:#5E2D42;" d="M364.612,464.861c2.443,11.166,3.266,22.492,2.466,33.819c0.571,0,1.165-0.023,1.736-0.069      c0.799-11.417-0.046-22.858-2.535-34.115c-0.091-0.48-0.548-0.754-1.005-0.662C364.795,463.925,364.521,464.382,364.612,464.861      z"/>
			</g>
		</g>
		<g>
			<path style="fill:#F5755D;" d="M273.554,73.13c-7.684-3.969-17.313-3.424-25.568-1.921c-7.059,1.285-13.654,4.783-17.243,11.203     c-1.507,2.696-2.277,5.887-1.688,8.919c2.406,12.377,19.173,11.357,28.309,9.325c4.245-0.944,8.356-2.497,12.159-4.606     c0.957-0.531,10.315-7.535,10.069-7.693c3.024,1.946,6.549,3.503,10.09,4.125c0.748,0.132,1.525,0.231,2.262,0.044     c0.737-0.187,1.431-0.719,1.601-1.46c0.191-0.833-0.306-1.662-0.845-2.326c-2.165-2.665-5.281-4.346-8.312-5.958     c1.844-1.451,3.947-3.743,5.232-5.706c1.285-1.964,2.094-4.296,1.954-6.639c-0.041-0.681-0.199-1.424-0.74-1.84     c-0.337-0.259-0.773-0.349-1.197-0.381c-2.587-0.195-4.92,1.473-6.863,3.193c-1.571,1.39-3.062,2.871-4.464,4.432     C276.916,74.758,275.124,73.941,273.554,73.13z"/>
			<path style="fill:#491D30;" d="M246.149,86.602c0.396,1.986-0.893,3.916-2.879,4.312c-1.986,0.396-3.916-0.893-4.312-2.879     s0.893-3.916,2.879-4.312C243.823,83.328,245.754,84.617,246.149,86.602z"/>
			<path style="fill:#491D30;" d="M259.033,96.511c-0.184,0-0.373-0.024-0.562-0.075c-0.618-0.169-1.119-0.566-1.525-0.933     c-1.875-1.69-3.213-3.973-3.773-6.43c-0.056-0.247,0.1-0.492,0.345-0.548c0.259-0.061,0.492,0.099,0.55,0.345     c0.515,2.275,1.756,4.389,3.491,5.952c0.326,0.294,0.718,0.611,1.152,0.729c0.389,0.106,0.791,0.01,0.986-0.225     c0.273-0.333,0.184-0.921,0.047-1.508c-0.037-0.153,0.009-0.314,0.119-0.427c0.11-0.113,0.268-0.16,0.424-0.126     c1.047,0.231,2.33,0.399,2.955-0.331c0.522-0.61,0.333-1.648-0.126-2.356c-0.718-1.108-1.891-1.701-2.747-2.003     c-1.138-0.403-2.395-0.548-3.584-0.661c-0.252-0.023-0.436-0.247-0.413-0.499c0.023-0.253,0.208-0.434,0.501-0.413     c1.245,0.119,2.565,0.271,3.801,0.709c0.989,0.349,2.351,1.045,3.211,2.369c0.623,0.964,0.905,2.456,0.051,3.451     c-0.784,0.912-2.026,0.937-3.169,0.759c0.063,0.519,0.035,1.133-0.364,1.62C260.082,96.298,259.579,96.511,259.033,96.511z"/>
		</g>
		<g>
			<path style="fill:#F5755D;" d="M432.215,328.629c-8.863-1.754-18.368,1.586-26.217,5.488     c-6.711,3.337-12.316,8.761-14.055,16.245c-0.73,3.143-0.577,6.568,0.894,9.44c6.004,11.724,22.536,5.837,31.116,1.147     c3.986-2.179,7.662-4.93,10.867-8.15c0.806-0.81,8.166-10.554,7.874-10.641c3.599,1.076,7.588,1.615,11.323,1.214     c0.789-0.085,1.597-0.211,2.283-0.612c0.685-0.401,1.228-1.136,1.183-1.929c-0.05-0.892-0.789-1.579-1.522-2.089     c-2.946-2.046-6.561-2.829-10.07-3.568c1.43-1.991,2.875-4.901,3.596-7.244c0.72-2.343,0.856-4.919,0.035-7.229     c-0.239-0.672-0.613-1.372-1.277-1.632c-0.413-0.162-0.877-0.126-1.311-0.035c-2.654,0.554-4.511,2.906-5.962,5.195     c-1.173,1.851-2.24,3.769-3.194,5.742C436.061,329.288,434.026,328.987,432.215,328.629z"/>
			<path style="fill:#491D30;" d="M408.619,350.099c0.973,1.878,0.24,4.189-1.638,5.162c-1.878,0.973-4.189,0.24-5.162-1.638     c-0.973-1.878-0.24-4.189,1.638-5.162C405.335,347.488,407.646,348.221,408.619,350.099z"/>
			<path style="fill:#491D30;" d="M423.791,356.394c-0.655,0-1.255-0.248-1.756-0.493c-2.367-1.148-4.375-3.051-5.65-5.358     c-0.128-0.232-0.044-0.524,0.189-0.651c0.224-0.128,0.52-0.044,0.651,0.187c1.18,2.135,3.039,3.897,5.231,4.961     c0.403,0.197,0.874,0.396,1.336,0.396c0.012,0,0.021,0,0.03,0c0.417-0.008,0.798-0.217,0.926-0.511     c0.187-0.433-0.105-1.014-0.392-1.526c-0.079-0.143-0.082-0.317-0.005-0.462c0.079-0.145,0.226-0.239,0.389-0.251     c1.119-0.075,2.456-0.278,2.871-1.189c0.35-0.765-0.145-1.75-0.809-2.328c-1.04-0.904-2.39-1.159-3.339-1.215     c-1.262-0.083-2.512,0.136-3.787,0.377c-0.273,0.056-0.511-0.124-0.56-0.381c-0.049-0.26,0.124-0.51,0.382-0.559     c1.285-0.241,2.649-0.465,4.02-0.393c1.098,0.065,2.668,0.368,3.911,1.448c0.905,0.786,1.623,2.2,1.054,3.448     c-0.522,1.144-1.763,1.531-2.964,1.681c0.217,0.504,0.366,1.129,0.105,1.731c-0.28,0.647-0.982,1.073-1.786,1.086     C423.821,356.394,423.807,356.394,423.791,356.394z"/>
		</g>
		<g>
			<path style="fill:#F5755D;" d="M67.358,288.743c-1.645-8.259-7.906-15.258-14.062-20.63c-5.264-4.593-11.932-7.49-18.998-6.324     c-2.967,0.49-5.863,1.841-7.814,4.131c-7.961,9.347,2.996,21.491,10.091,27.212c3.296,2.658,6.975,4.844,10.889,6.459     c0.985,0.406,11.999,3.276,11.97,2.994c0.354,3.483,1.31,7.112,2.986,10.186c0.354,0.65,0.75,1.301,1.339,1.748     c0.589,0.448,1.416,0.653,2.083,0.332c0.75-0.361,1.08-1.242,1.258-2.055c0.714-3.266,0.101-6.659-0.512-9.945     c2.224,0.523,5.246,0.732,7.521,0.518c2.275-0.214,4.542-1.014,6.24-2.544c0.494-0.445,0.963-1.016,0.951-1.681     c-0.008-0.414-0.204-0.8-0.437-1.142c-1.422-2.088-4.109-2.851-6.598-3.286c-2.012-0.352-4.044-0.588-6.084-0.707     C68.161,292.291,67.694,290.431,67.358,288.743z"/>
			<path style="fill:#491D30;" d="M40.462,276.062c-1.271,1.507-3.523,1.698-5.03,0.427c-1.507-1.271-1.698-3.523-0.427-5.03     c1.271-1.507,3.523-1.698,5.03-0.426C41.543,272.303,41.734,274.555,40.462,276.062z"/>
			<path style="fill:#491D30;" d="M46.061,293.813c-0.023,0-0.049-0.001-0.075-0.002c-1.168-0.041-1.945-0.974-2.502-1.953     c-0.352,0.359-0.828,0.708-1.427,0.708c-0.009,0-0.016,0-0.026,0c-0.658-0.013-1.276-0.465-1.574-1.153     c-0.247-0.571-0.247-1.194-0.217-1.727c0.147-2.452,1.073-4.859,2.607-6.776c0.152-0.19,0.436-0.22,0.625-0.07     c0.194,0.154,0.224,0.435,0.07,0.627c-1.418,1.775-2.274,4.002-2.411,6.271c-0.026,0.428-0.028,0.92,0.147,1.32     c0.154,0.357,0.471,0.61,0.767,0.614c0.005,0,0.007,0,0.012,0c0.434,0,0.83-0.454,1.166-0.88c0.093-0.12,0.25-0.175,0.396-0.168     c0.152,0.016,0.285,0.11,0.354,0.247c0.462,0.936,1.112,2.015,2.045,2.049c0.014,0,0.028,0,0.04,0     c0.765,0,1.42-0.761,1.679-1.527c0.406-1.221,0.147-2.473-0.145-3.308c-0.38-1.102-1.007-2.109-1.672-3.13     c-0.135-0.206-0.077-0.483,0.131-0.618c0.203-0.134,0.483-0.075,0.616,0.131c0.697,1.069,1.357,2.128,1.77,3.324     c0.336,0.965,0.634,2.424,0.145,3.884C48.235,292.716,47.302,293.813,46.061,293.813z"/>
		</g>
		<g>
			<g>
				<path style="fill:#FFE7E0;" d="M352.345,104.062c-0.8,0.086-1.518-0.493-1.604-1.293l-4.828-44.871      c-0.086-0.8,0.493-1.518,1.293-1.604c0.799-0.086,1.518,0.493,1.604,1.293l4.828,44.872      C353.723,103.258,353.145,103.976,352.345,104.062z"/>
				<path style="fill:#FFE7E0;" d="M367.823,78.704l-36.241,3.899c-0.8,0.086-1.518-0.493-1.604-1.293      c-0.086-0.8,0.493-1.518,1.293-1.604l36.241-3.899c0.8-0.086,1.518,0.493,1.604,1.293      C369.202,77.899,368.622,78.618,367.823,78.704z"/>
				<path style="fill:#FFE7E0;" d="M361.18,91.14c-0.396,0.043-0.81-0.077-1.131-0.367l-23.749-21.386      c-0.597-0.537-0.645-1.459-0.107-2.057c0.537-0.594,1.458-0.649,2.057-0.107L362,88.61c0.598,0.537,0.645,1.459,0.107,2.056      C361.857,90.943,361.526,91.103,361.18,91.14z"/>
				<path style="fill:#FFE7E0;" d="M338.612,92.322c-0.398,0.043-0.81-0.077-1.131-0.367c-0.598-0.538-0.645-1.459-0.107-2.056      l21.388-23.749c0.535-0.597,1.455-0.647,2.056-0.107c0.598,0.538,0.645,1.459,0.107,2.057l-21.388,23.749      C339.289,92.125,338.957,92.285,338.612,92.322z"/>
			</g>
			<g>
				<path style="fill:#FFE7E0;" d="M162.162,102.658c-0.804-0.009-1.449-0.669-1.44-1.473l0.51-45.128      c0.009-0.804,0.669-1.449,1.473-1.44c0.804,0.009,1.449,0.669,1.44,1.473l-0.51,45.128      C163.626,102.023,162.966,102.667,162.162,102.658z"/>
				<path style="fill:#FFE7E0;" d="M180.528,79.307l-36.448-0.412c-0.804-0.009-1.449-0.669-1.44-1.473      c0.009-0.804,0.669-1.449,1.473-1.44l36.448,0.412c0.804,0.009,1.449,0.669,1.44,1.473      C181.992,78.671,181.333,79.316,180.528,79.307z"/>
				<path style="fill:#FFE7E0;" d="M172.463,90.871c-0.398-0.005-0.795-0.172-1.079-0.498L150.329,66.33      c-0.53-0.603-0.469-1.525,0.137-2.055c0.603-0.526,1.525-0.472,2.055,0.137l21.054,24.043c0.53,0.604,0.469,1.525-0.137,2.055      C173.158,90.756,172.81,90.875,172.463,90.871z"/>
				<path style="fill:#FFE7E0;" d="M149.913,89.378c-0.4-0.005-0.795-0.172-1.08-0.498c-0.53-0.606-0.468-1.525,0.137-2.055      l24.045-21.055c0.602-0.53,1.521-0.47,2.055,0.137c0.53,0.605,0.469,1.525-0.137,2.055l-24.045,21.054      C150.608,89.262,150.26,89.382,149.913,89.378z"/>
			</g>
			<g>
				<path style="fill:#FFE7E0;" d="M463.578,299.317c-0.861-0.047-1.521-0.783-1.474-1.644l2.637-48.292      c0.047-0.861,0.784-1.521,1.644-1.474c0.861,0.047,1.521,0.783,1.474,1.644l-2.637,48.291      C465.175,298.703,464.438,299.364,463.578,299.317z"/>
				<path style="fill:#FFE7E0;" d="M484.324,275.167l-39.003-2.13c-0.861-0.047-1.521-0.783-1.474-1.644      c0.047-0.861,0.783-1.521,1.644-1.474l39.004,2.13c0.861,0.047,1.521,0.783,1.474,1.644      C485.921,274.554,485.184,275.214,484.324,275.167z"/>
				<path style="fill:#FFE7E0;" d="M475.152,287.174c-0.426-0.023-0.843-0.221-1.133-0.583l-21.428-26.717      c-0.539-0.671-0.431-1.654,0.242-2.194c0.671-0.535,1.655-0.435,2.194,0.242l21.428,26.717c0.54,0.671,0.431,1.654-0.242,2.194      C475.903,287.083,475.524,287.194,475.152,287.174z"/>
				<path style="fill:#FFE7E0;" d="M451.079,284.53c-0.428-0.023-0.843-0.221-1.133-0.583c-0.539-0.673-0.431-1.654,0.242-2.194      l26.719-21.427c0.669-0.54,1.65-0.433,2.194,0.242c0.539,0.673,0.431,1.654-0.242,2.194l-26.719,21.428      C451.829,284.439,451.451,284.551,451.079,284.53z"/>
			</g>
			<g>
				<path style="fill:#FFE7E0;" d="M49.214,235.925c-0.841-0.046-1.486-0.766-1.44-1.606l2.576-47.186      c0.046-0.841,0.766-1.486,1.606-1.44c0.841,0.046,1.486,0.766,1.44,1.606l-2.576,47.186      C50.775,235.326,50.055,235.971,49.214,235.925z"/>
				<path style="fill:#FFE7E0;" d="M69.486,212.328l-38.11-2.081c-0.841-0.046-1.486-0.765-1.44-1.606      c0.046-0.841,0.766-1.486,1.606-1.44l38.11,2.081c0.841,0.046,1.486,0.765,1.44,1.606      C71.046,211.729,70.326,212.374,69.486,212.328z"/>
				<path style="fill:#FFE7E0;" d="M60.524,224.06c-0.416-0.023-0.824-0.216-1.107-0.57L38.48,197.385      c-0.527-0.655-0.421-1.616,0.236-2.143c0.655-0.523,1.617-0.425,2.143,0.236l20.937,26.105c0.527,0.655,0.421,1.616-0.236,2.143      C61.257,223.971,60.887,224.08,60.524,224.06z"/>
				<path style="fill:#FFE7E0;" d="M37.002,221.477c-0.419-0.023-0.824-0.216-1.107-0.57c-0.527-0.657-0.421-1.616,0.236-2.143      l26.107-20.937c0.653-0.527,1.613-0.423,2.143,0.236c0.527,0.657,0.421,1.616-0.236,2.143l-26.107,20.937      C37.735,221.387,37.365,221.497,37.002,221.477z"/>
			</g>
			<path style="fill:#FFE7E0;" d="M267.174,35.483c0,4.293-3.48,7.773-7.773,7.773c-4.293,0-7.774-3.48-7.774-7.773     s3.48-7.774,7.774-7.774C263.693,27.71,267.174,31.19,267.174,35.483z"/>
			<circle style="fill:#FFE7E0;" cx="452.962" cy="202.226" r="7.774"/>
			<circle style="fill:#FFE7E0;" cx="68.753" cy="159.083" r="7.774"/>
		</g>
	</g>
</g>















</svg>
