<svg height="463pt" viewBox="0 -35 463.9155 463" width="463pt" xmlns="http://www.w3.org/2000/svg"><path d="m263.824219 376.457031c-2.429688 0-4.726563-1.101562-6.246094-3l-7.015625-8.800781c-17.273438-21.644531-26.695312-48.507812-26.738281-76.199219 0-3.234375 1.945312-6.15625 4.9375-7.394531 2.988281-1.242188 6.429687-.558594 8.71875 1.730469l6.167969 6.160156c15.601562 15.65625 35.730468 26.011719 57.535156 29.601563l3.960937.65625c4.359375.726562 7.300781 4.851562 6.574219 9.210937-.730469 4.359375-4.855469 7.300781-9.214844 6.570313l-3.949218-.664063c-20.8125-3.421875-40.371094-12.222656-56.738282-25.527344 3.28125 16.78125 10.554688 32.523438 21.210938 45.898438l7.007812 8.757812c1.917969 2.398438 2.296875 5.679688.972656 8.449219-1.324218 2.769531-4.113281 4.539062-7.183593 4.550781zm0 0" fill="#daa857"/><path d="m287.824219 392.457031c-.535157-.015625-1.070313-.070312-1.597657-.160156-.503906-.085937-.988281-.246094-1.441406-.480469-.511718-.175781-1-.417968-1.449218-.71875l-1.191407-.960937c-1.464843-1.53125-2.292969-3.558594-2.320312-5.679688.015625-1.042969.230469-2.078125.640625-3.039062.40625-.96875.972656-1.863281 1.679687-2.640625l1.191407-.960938c.449218-.300781.9375-.542968 1.449218-.71875.453125-.230468.9375-.394531 1.441406-.480468 1.558594-.328126 3.179688-.160157 4.640626.480468.964843.40625 1.859374.976563 2.636718 1.679688.707032.777344 1.277344 1.671875 1.679688 2.640625.410156.960937.628906 1.996093.640625 3.039062-.03125 2.117188-.859375 4.148438-2.320313 5.679688-.777344.707031-1.671875 1.273437-2.636718 1.679687-.949219.449219-1.992188.667969-3.042969.640625zm0 0" fill="#b94137"/><path d="m335.824219 336.457031c-.535157-.015625-1.070313-.070312-1.597657-.160156-.503906-.085937-.988281-.246094-1.441406-.480469-.511718-.175781-1-.417968-1.449218-.71875l-1.191407-.960937c-.722656-.765625-1.292969-1.660157-1.679687-2.640625-.449219-.949219-.667969-1.988282-.640625-3.039063.027343-2.117187.855469-4.148437 2.320312-5.679687l1.191407-.960938c.449218-.300781.9375-.542968 1.449218-.71875.453125-.230468.9375-.394531 1.441406-.480468 1.023438-.238282 2.085938-.238282 3.109376 0 .535156.074218 1.050781.238281 1.53125.480468.488281.160156.949218.40625 1.359374.71875.472657.320313.878907.640625 1.277344.960938 1.460938 1.535156 2.289063 3.5625 2.320313 5.679687-.011719 1.046875-.230469 2.078125-.640625 3.039063-.382813.980468-.953125 1.875-1.679688 2.640625-.398437.320312-.796875.640625-1.277344.960937-.410156.316406-.871093.558594-1.359374.71875-.480469.246094-.996094.40625-1.53125.480469-.496094.09375-1.003907.148437-1.511719.160156zm0 0" fill="#b94137"/><path d="m231.824219 296.457031c-2.714844 0-5.246094-1.375-6.71875-3.65625l-48.070313-74.230469c-2.402344-3.710937-1.34375-8.664062 2.367188-11.066406 3.707031-2.398437 8.660156-1.339844 11.0625 2.371094l41.359375 63.863281 41.359375-63.863281c2.402344-3.710938 7.355468-4.769531 11.066406-2.371094 3.707031 2.402344 4.769531 7.355469 2.367188 11.066406l-48.070313 74.230469c-1.476563 2.28125-4.007813 3.65625-6.722656 3.65625zm0 0" fill="#b94137"/><path d="m231.824219 296.457031c-4.417969 0-8-3.582031-8-8v-96c0-4.417969 3.582031-8 8-8s8 3.582031 8 8v96c0 4.417969-3.582031 8-8 8zm0 0" fill="#b94137"/><path d="m425.34375 112.539062c-43.300781-65.578124-116.867188-104.761718-195.449219-104.101562-78.582031.664062-151.480469 41.082031-193.667969 107.378906-12.785156 19.886719-22.390624 41.640625-28.480468 64.480469l129.199218 62.320313c1.472657-10.3125 4.636719-20.3125 9.359376-29.597657 5.015624-9.832031 11.667968-18.734375 19.679687-26.320312 8.128906-7.761719 17.585937-13.992188 27.921875-18.402344v-.078125c24.21875-10.347656 51.617188-10.347656 75.839844 0v.078125c10.335937 4.410156 19.792968 10.640625 27.917968 18.402344 7.582032 7.179687 13.933594 15.558593 18.800782 24.796875 5.214844 9.695312 8.679687 20.226562 10.242187 31.121094l129.199219-62.320313c-6.441406-24.09375-16.765625-46.980469-30.5625-67.757813zm-231.4375 55.757813v-.078125c24.21875-10.347656 51.617188-10.347656 75.839844 0v.078125" fill="#c7463b"/><g fill="#b94137"><path d="m231.824219 296.457031c-1.203125 0-2.394531-.273437-3.480469-.800781l-224.070312-108.152344c-3.8125-2.003906-5.351563-6.675781-3.476563-10.554687 1.871094-3.882813 6.484375-5.582031 10.429687-3.84375l220.597657 106.472656 220.601562-106.488281c3.945313-1.738282 8.554688-.039063 10.429688 3.84375 1.875 3.878906.335937 8.546875-3.476563 10.554687l-224.074218 108.167969c-1.082032.527344-2.273438.800781-3.480469.800781zm0 0"/><path d="m297.65625 194.699219c-1.535156 0-3.039062-.449219-4.328125-1.289063-1.785156-1.148437-3.042969-2.960937-3.492187-5.035156-.449219-2.074219-.058594-4.246094 1.09375-6.027344l81.273437-125.601562c2.398437-3.710938 7.351563-4.769532 11.0625-2.367188 3.707031 2.398438 4.769531 7.355469 2.367187 11.0625l-81.246093 125.601563c-1.476563 2.28125-4.011719 3.660156-6.730469 3.65625zm0 0"/><path d="m165.992188 194.699219c-2.71875.003906-5.25-1.375-6.726563-3.65625l-81.273437-125.601563c-2.398438-3.707031-1.339844-8.664062 2.371093-11.0625 3.707031-2.402344 8.660157-1.34375 11.0625 2.367188l81.273438 125.601562c1.148437 1.78125 1.542969 3.953125 1.09375 6.027344-.453125 2.074219-1.707031 3.886719-3.496094 5.035156-1.277344.835938-2.773437 1.285156-4.304687 1.289063zm0 0"/><path d="m231.824219 168.457031c-4.417969 0-8-3.582031-8-8v-48c0-4.417969 3.582031-8 8-8s8 3.582031 8 8v48c0 4.417969-3.582031 8-8 8zm0 0"/><path d="m231.824219 56.457031c-4.417969 0-8-3.582031-8-8v-40c0-4.417969 3.582031-8 8-8s8 3.582031 8 8v40c0 4.417969-3.582031 8-8 8zm0 0"/><path d="m316.464844 219.496094c-3.304688.003906-6.269532-2.027344-7.464844-5.113282-1.191406-3.082031-.363281-6.582031 2.082031-8.804687l108.886719-98.960937c2.109375-1.960938 5.109375-2.640626 7.859375-1.773438 2.746094.867188 4.816406 3.144531 5.417969 5.960938.597656 2.816406-.363282 5.742187-2.515625 7.652343l-108.882813 98.960938c-1.472656 1.339843-3.390625 2.082031-5.382812 2.078125zm0 0"/><path d="m146.304688 221.019531c-1.953126 0-3.839844-.714843-5.304688-2.011719l-110.070312-97.199218c-3.3125-2.921875-3.628907-7.980469-.703126-11.292969 2.921876-3.316406 7.980469-3.628906 11.292969-.707031l110.082031 97.199218c2.496094 2.203126 3.367188 5.71875 2.191407 8.832032-1.179688 3.113281-4.160157 5.171875-7.488281 5.167968zm0 0"/><path d="m269.746094 176.257812c-4.417969 0-8-3.582031-8-8v-.078124c0-.816407.128906-1.625.375-2.402344l45.601562-144.238282c.792969-2.804687 3.046875-4.953124 5.882813-5.613281 2.839843-.660156 5.8125.273438 7.761719 2.441407 1.949218 2.164062 2.566406 5.21875 1.609374 7.96875l-45.550781 144.089843c-.96875 3.441407-4.105469 5.824219-7.679687 5.832031zm0 0"/><path d="m193.90625 176.257812c-3.714844.007813-6.941406-2.539062-7.800781-6.152343l-45.433594-143.71875c-.953125-2.753907-.335937-5.808594 1.613281-7.972657 1.949219-2.167968 4.921875-3.101562 7.757813-2.441406 2.839843.660156 5.09375 2.808594 5.886719 5.613282l45.601562 144.238281c.246094.777343.371094 1.585937.375 2.402343.007812 2.125-.832031 4.167969-2.332031 5.675782-1.5 1.507812-3.542969 2.355468-5.667969 2.355468zm0 0"/></g><path d="m263.824219 80.457031c0 17.675781-14.324219 32-32 32-17.671875 0-32-14.324219-32-32 0-17.671875 14.328125-32 32-32 17.675781 0 32 14.328125 32 32zm0 0" fill="#eaeae8"/><path d="m138.480469 234.515625-127.253907-61.425781c-3.945312-1.738282-8.558593-.039063-10.429687 3.84375-1.875 3.878906-.335937 8.546875 3.476563 10.554687l132 63.707031.695312-8.59375c.367188-2.726562.890625-5.433593 1.511719-8.085937zm0 0" fill="#b94137"/><path d="m295.824219 256.457031c-.015625-2.519531-.179688-5.035156-.496094-7.535156l-63.503906 30.65625-63.503907-30.65625c-.3125 2.5-.480468 5.015625-.496093 7.535156 0 .402344.082031.722657.082031 1.121094v8.894531l60.4375 29.183594c2.199219 1.0625 4.761719 1.0625 6.960938 0l60.472656-29.183594v-8.894531c-.03125-.398437.046875-.71875.046875-1.121094zm0 0" fill="#b94137"/><path d="m463.105469 176.816406c-1.921875-3.976562-6.703125-5.644531-10.679688-3.726562l-127.257812 61.425781c.625 2.664063 1.144531 5.359375 1.539062 8.101563l.328125 8.800781 132.34375-63.878907c1.917969-.921874 3.394532-2.574218 4.09375-4.585937.699219-2.011719.566406-4.21875-.367187-6.136719zm0 0" fill="#b94137"/><path d="m326.707031 242.617188c-.394531-2.742188-.914062-5.4375-1.539062-8.101563-1.878907-8.023437-4.804688-15.761719-8.703125-23.019531-4.867188-9.238282-11.21875-17.617188-18.800782-24.796875-8.125-7.761719-17.582031-13.992188-27.917968-18.402344v-.078125c-24.222656-10.347656-51.621094-10.347656-75.839844 0v.078125c-10.335938 4.410156-19.792969 10.640625-27.921875 18.402344-8.011719 7.585937-14.664063 16.488281-19.679687 26.320312-3.464844 6.820313-6.09375 14.039063-7.824219 21.496094-.621094 2.652344-1.144531 5.359375-1.535157 8.101563l-.695312 8.59375 31.625 15.261718v-8.894531c0-.398437-.082031-.71875-.082031-1.121094.015625-2.519531.179687-5.035156.496093-7.535156 1.527344-12.863281 6.914063-24.964844 15.457032-34.703125 17.65625-19.824219 45.699218-26.726562 70.542968-17.363281 24.839844 9.363281 41.351563 33.054687 41.535157 59.601562 0 .402344-.078125.722657-.078125 1.121094v8.894531l31.28125-15.085937zm0 0" fill="#eaeae8"/></svg>